<svg width="100" height="100" viewBox="0 0 100 100" fill="none" xmlns="http://www.w3.org/2000/svg">
<circle cx="50" cy="50" r="50" fill="#0097A7"/>
<rect x="28" y="25" width="22" height="22" rx="4" fill="#D9D9D9"/>
<rect x="39" y="48" width="22" height="22" rx="4" fill="#D9D9D9"/>
<rect x="16" y="48" width="22" height="22" rx="4" fill="#D9D9D9"/>
<rect x="62" y="48" width="22" height="22" rx="4" fill="#D9D9D9"/>
<rect x="53" y="25" width="22" height="22" rx="4" fill="#D9D9D9"/>
<rect x="40" y="2" width="22" height="22" rx="4" fill="#D9D9D9"/>
<rect x="14" y="71" width="73" height="4" rx="2" fill="#D9D9D9"/>
<rect x="14" y="77" width="22" height="4" rx="2" fill="#D9D9D9"/>
<rect x="65" y="77" width="22" height="4" rx="2" fill="#D9D9D9"/>
<path d="M32.6619 86.8551C32.6392 86.6259 32.5417 86.4479 32.3693 86.321C32.197 86.1941 31.9631 86.1307 31.6676 86.1307C31.4669 86.1307 31.2973 86.1591 31.1591 86.2159C31.0208 86.2708 30.9148 86.3475 30.8409 86.446C30.7689 86.5445 30.733 86.6562 30.733 86.7812C30.7292 86.8854 30.7509 86.9763 30.7983 87.054C30.8475 87.1316 30.9148 87.1989 31 87.2557C31.0852 87.3106 31.1837 87.3589 31.2955 87.4006C31.4072 87.4403 31.5265 87.4744 31.6534 87.5028L32.1761 87.6278C32.4299 87.6847 32.6629 87.7604 32.875 87.8551C33.0871 87.9498 33.2708 88.0663 33.4261 88.2045C33.5814 88.3428 33.7017 88.5057 33.7869 88.6932C33.8741 88.8807 33.9186 89.0956 33.9205 89.3381C33.9186 89.6941 33.8277 90.0028 33.6477 90.2642C33.4697 90.5237 33.2121 90.7254 32.875 90.8693C32.5398 91.0114 32.1354 91.0824 31.6619 91.0824C31.1922 91.0824 30.7831 91.0104 30.4347 90.8665C30.0881 90.7225 29.8172 90.5095 29.6222 90.2273C29.429 89.9432 29.3277 89.5919 29.3182 89.1733H30.5085C30.5218 89.3684 30.5777 89.5312 30.6761 89.6619C30.7765 89.7907 30.91 89.8883 31.0767 89.9545C31.2453 90.0189 31.4356 90.0511 31.6477 90.0511C31.8561 90.0511 32.0369 90.0208 32.1903 89.9602C32.3456 89.8996 32.4659 89.8153 32.5511 89.7074C32.6364 89.5994 32.679 89.4754 32.679 89.3352C32.679 89.2045 32.6402 89.0947 32.5625 89.0057C32.4867 88.9167 32.375 88.8409 32.2273 88.7784C32.0814 88.7159 31.9025 88.6591 31.6903 88.608L31.0568 88.4489C30.5663 88.3295 30.179 88.143 29.8949 87.8892C29.6108 87.6354 29.4697 87.2936 29.4716 86.8636C29.4697 86.5114 29.5634 86.2036 29.7528 85.9403C29.9441 85.6771 30.2064 85.4716 30.5398 85.3239C30.8731 85.1761 31.2519 85.1023 31.6761 85.1023C32.108 85.1023 32.4848 85.1761 32.8068 85.3239C33.1307 85.4716 33.3826 85.6771 33.5625 85.9403C33.7424 86.2036 33.8352 86.5085 33.8409 86.8551H32.6619ZM34.5263 86.196V85.1818H39.3047V86.196H37.5234V91H36.3075V86.196H34.5263ZM45.1726 88.0909C45.1726 88.7254 45.0523 89.2652 44.8118 89.7102C44.5732 90.1553 44.2474 90.4953 43.8345 90.7301C43.4235 90.9631 42.9614 91.0795 42.4482 91.0795C41.9311 91.0795 41.4671 90.9621 41.0561 90.7273C40.6451 90.4924 40.3203 90.1525 40.0817 89.7074C39.843 89.2623 39.7237 88.7235 39.7237 88.0909C39.7237 87.4564 39.843 86.9167 40.0817 86.4716C40.3203 86.0265 40.6451 85.6875 41.0561 85.4545C41.4671 85.2197 41.9311 85.1023 42.4482 85.1023C42.9614 85.1023 43.4235 85.2197 43.8345 85.4545C44.2474 85.6875 44.5732 86.0265 44.8118 86.4716C45.0523 86.9167 45.1726 87.4564 45.1726 88.0909ZM43.9254 88.0909C43.9254 87.6799 43.8639 87.3333 43.7408 87.0511C43.6196 86.7689 43.4482 86.5549 43.2266 86.4091C43.005 86.2633 42.7455 86.1903 42.4482 86.1903C42.1508 86.1903 41.8913 86.2633 41.6697 86.4091C41.4482 86.5549 41.2758 86.7689 41.1527 87.0511C41.0315 87.3333 40.9709 87.6799 40.9709 88.0909C40.9709 88.5019 41.0315 88.8485 41.1527 89.1307C41.2758 89.4129 41.4482 89.6269 41.6697 89.7727C41.8913 89.9186 42.1508 89.9915 42.4482 89.9915C42.7455 89.9915 43.005 89.9186 43.2266 89.7727C43.4482 89.6269 43.6196 89.4129 43.7408 89.1307C43.8639 88.8485 43.9254 88.5019 43.9254 88.0909ZM51.2173 87.2188H49.973C49.9503 87.0578 49.9039 86.9148 49.8338 86.7898C49.7637 86.6629 49.6738 86.5549 49.5639 86.4659C49.4541 86.3769 49.3272 86.3087 49.1832 86.2614C49.0412 86.214 48.8868 86.1903 48.7202 86.1903C48.419 86.1903 48.1567 86.2652 47.9332 86.4148C47.7098 86.5625 47.5365 86.7784 47.4134 87.0625C47.2902 87.3447 47.2287 87.6875 47.2287 88.0909C47.2287 88.5057 47.2902 88.8542 47.4134 89.1364C47.5384 89.4186 47.7126 89.6316 47.9361 89.7756C48.1596 89.9195 48.4181 89.9915 48.7116 89.9915C48.8764 89.9915 49.0289 89.9697 49.169 89.9261C49.3111 89.8826 49.437 89.8191 49.5469 89.7358C49.6567 89.6506 49.7476 89.5473 49.8196 89.4261C49.8935 89.3049 49.9446 89.1667 49.973 89.0114L51.2173 89.017C51.1851 89.2841 51.1046 89.5417 50.9759 89.7898C50.849 90.036 50.6776 90.2566 50.4616 90.4517C50.2476 90.6449 49.992 90.7983 49.6946 90.9119C49.3991 91.0237 49.0649 91.0795 48.6918 91.0795C48.1728 91.0795 47.7088 90.9621 47.2997 90.7273C46.8925 90.4924 46.5705 90.1525 46.3338 89.7074C46.099 89.2623 45.9815 88.7235 45.9815 88.0909C45.9815 87.4564 46.1009 86.9167 46.3395 86.4716C46.5781 86.0265 46.902 85.6875 47.3111 85.4545C47.7202 85.2197 48.1804 85.1023 48.6918 85.1023C49.0289 85.1023 49.3414 85.1496 49.6293 85.2443C49.919 85.339 50.1757 85.4773 50.3991 85.6591C50.6226 85.839 50.8045 86.0597 50.9446 86.321C51.0866 86.5824 51.1776 86.8816 51.2173 87.2188ZM52.0994 91V85.1818H53.3295V87.7472H53.4062L55.5 85.1818H56.9744L54.8153 87.7869L57 91H55.5284L53.9347 88.608L53.3295 89.3466V91H52.0994ZM58.8452 85.1818V91H57.6151V85.1818H58.8452ZM59.8572 91V85.1818H63.7095V86.196H61.0874V87.5824H63.4538V88.5966H61.0874V91H59.8572ZM64.196 85.1818H65.5739L66.9006 87.6875H66.9574L68.2841 85.1818H69.6619L67.5398 88.9432V91H66.3182V88.9432L64.196 85.1818Z" fill="white"/>
</svg>
